Coordinates
version=1
nRows=17
nColumns=40
inDegrees=yes

Units are S.I. units (second, meters, Newtons, ...)
Angles are in degrees.

endheader
time	pelvis_tilt	pelvis_list	pelvis_rotation	pelvis_tx	pelvis_ty	pelvis_tz	hip_flexion_r	hip_adduction_r	hip_rotation_r	knee_angle_r	knee_angle_r_beta	ankle_angle_r	subtalar_angle_r	mtp_angle_r	hip_flexion_l	hip_adduction_l	hip_rotation_l	knee_angle_l	knee_angle_l_beta	ankle_angle_l	subtalar_angle_l	mtp_angle_l	lumbar_extension	lumbar_bending	lumbar_rotation	arm_flex_r	arm_add_r	arm_rot_r	elbow_flex_r	pro_sup_r	wrist_flex_r	wrist_dev_r	arm_flex_l	arm_add_l	arm_rot_l	elbow_flex_l	pro_sup_l	wrist_flex_l	wrist_dev_l
     19.85750000	     -5.43315274	     -6.02525387	      3.14756813	      1.05893944	      0.92347870	      0.44877937	      0.50741770	      0.76844029	    -16.45295370	     17.29375328	     17.29375328	     15.85898456	      3.19727969	     -4.31785142	     26.83791040	     -7.43945432	     -0.32414661	     27.67244348	     27.67244348	      8.97574869	    -15.56074573	      7.03934324	     -9.47929925	      5.13089135	      4.53150458	     25.18849786	    -14.35724113	      0.68173155	     77.99553615	     44.95771774	      0.00000000	      0.00000000	     -1.60090413	    -10.54107518	     -0.66088594	     34.67762549	     45.11078329	      0.00000000	      0.00000000
     19.87142857	     -5.60824636	     -5.89032473	      2.82535677	      1.05925229	      0.92370957	      0.44555664	      1.38860115	      0.03245016	    -16.00594656	     19.27801615	     19.27801615	     15.05723970	      2.28311002	     -6.82341765	     26.57193138	     -7.21889152	     -0.72416862	     27.82509658	     27.82509658	      9.71227948	    -15.45034119	      7.71189630	     -9.22551759	      4.87376430	      4.31989085	     25.58033907	    -14.13360271	      0.93411397	     73.50718167	     45.12291776	      0.00000000	      0.00000000	     -1.84152362	    -11.09017834	     -0.22007504	     37.62613853	     45.14760806	      0.00000000	      0.00000000
     19.88535714	     -5.55680219	     -5.88207711	      2.57483976	      1.05967509	      0.92432182	      0.44231155	      2.06994978	     -0.57357028	    -15.66658168	     21.38674088	     21.38674088	     14.70109947	      1.76463020	     -7.49385609	     25.97733588	     -7.11574888	     -1.03967484	     27.78215040	     27.78215040	     10.12634087	    -15.40172663	      7.55440257	     -9.31098476	      4.84455770	      4.66779730	     24.66546376	    -14.41544387	      0.95031847	     72.12133233	     45.16670025	      0.00000000	      0.00000000	     -0.89125038	    -11.25906091	     -0.31821618	     38.44894845	     45.18391027	      0.00000000	      0.00000000
     19.89928571	     -5.57633674	     -5.89015025	      2.30825559	      1.05987482	      0.92478086	      0.43915516	      3.07994575	     -1.21486875	    -15.26731696	     23.90563416	     23.90563416	     14.14959808	      1.06070048	     -8.46579431	     25.48182243	     -7.04177032	     -1.38962339	     27.74483206	     27.74483206	     10.47905190	    -15.32342854	      7.38449739	     -9.31001698	      4.80570752	      4.94106229	     23.77523456	    -14.61557086	      0.90583624	     70.37691293	     45.22442291	      0.00000000	      0.00000000	     -0.00835169	    -11.46737821	     -0.39357215	     39.51055423	     45.21716925	      0.00000000	      0.00000000
     19.91321429	     -5.61241779	     -5.92542885	      2.04483623	      1.05989550	      0.92520426	      0.43609215	      4.28268604	     -1.84865129	    -14.82581331	     26.67331751	     26.67331751	     13.33077532	      0.22833218	     -9.60086735	     24.99874900	     -7.00298202	     -1.77434467	     27.66940787	     27.66940787	     10.84077498	    -15.22618095	      7.18605488	     -9.31106109	      4.80473259	      5.08402758	     22.91539237	    -14.67729605	      0.85595891	     68.50102820	     45.28655507	      0.00000000	      0.00000000	      0.78075026	    -11.75242864	     -0.43755383	     40.70567156	     45.24615914	      0.00000000	      0.00000000
     19.92714286	     -5.65590154	     -5.99820550	      1.79151016	      1.05968342	      0.92552235	      0.43320285	      5.57535407	     -2.35446137	    -14.15158752	     29.32985187	     29.32985187	     11.01426391	     -1.76682484	    -14.32639251	     24.53824166	     -7.01188911	     -2.09442072	     27.56993451	     27.56993451	     11.10161321	    -15.01613437	      6.66365995	     -9.24634818	      4.82319908	      4.08813687	     23.57411399	    -13.40211063	      0.76812866	     63.22596580	     45.46842708	      0.00000000	      0.00000000	     -0.01786681	    -12.76097662	      0.05722613	     44.53758066	     45.27922790	      0.00000000	      0.00000000
     19.94107143	     -5.64960413	     -5.97054795	      1.48632163	      1.05926868	      0.92587316	      0.43036671	      7.18607327	     -3.12090911	    -13.65201074	     32.77760253	     32.77760253	      9.98365678	     -2.65360762	    -14.99078318	     24.02012771	     -6.95005632	     -2.57249486	     27.48467738	     27.48467738	     11.49241619	    -14.76380404	      6.40765590	     -9.37818093	      4.76389151	      4.29144827	     22.43399094	    -13.66111885	      0.94372193	     62.03488451	     45.49643139	      0.00000000	      0.00000000	      1.05162636	    -13.04493578	     -0.10187059	     45.40356159	     45.32296535	      0.00000000	      0.00000000
     19.95500000	     -5.66671110	     -5.95014750	      1.18468837	      1.05864144	      0.92611304	      0.42773306	      8.97783637	     -3.83227194	    -13.05866378	     36.38007224	     36.38007224	      8.76865343	     -3.79465973	    -15.50255570	     23.54812434	     -6.92076626	     -3.09543100	     27.40413238	     27.40413238	     11.88477738	    -14.41605483	      6.09143367	     -9.50328700	      4.71301720	      4.40682699	     21.30475372	    -13.78687861	      1.04676891	     60.59129984	     45.53595228	      0.00000000	      0.00000000	      2.10199173	    -13.40013400	     -0.17740643	     46.42018205	     45.35805400	      0.00000000	      0.00000000
     19.96892857	     -5.72272943	     -6.05771954	      0.85268116	      1.05787548	      0.92631849	      0.42560269	     10.86848560	     -4.19408790	    -12.14174116	     39.84514252	     39.84514252	      7.16582072	     -5.62127378	    -16.14270802	     23.14251013	     -7.13447689	     -3.81524122	     27.33363814	     27.33363814	     12.12567566	    -13.71619259	      5.11808407	     -9.49566197	      4.71740752	      3.87107375	     21.34991708	    -13.03207716	      0.85744329	     56.12557594	     45.68565332	      0.00000000	      0.00000000	      2.01914008	    -14.48099580	      0.77269964	     49.31350292	     45.36469038	      0.00000000	      0.00000000
     19.98285714	     -5.68860692	     -5.95738770	      0.56344018	      1.05694062	      0.92658105	      0.42339297	     12.76166211	     -4.91960388	    -11.61160596	     43.44054059	     43.44054059	      5.84376382	     -6.63457413	    -16.05297869	     22.62241371	     -7.05524370	     -4.41180048	     27.22190937	     27.22190937	     12.49041120	    -13.29938845	      4.84145470	     -9.69813774	      4.55018644	      3.83042640	     20.09616161	    -13.10851663	      1.00847170	     55.05039191	     45.70888681	      0.00000000	      0.00000000	      3.21475266	    -14.90669815	      0.61010150	     50.05772804	     45.40713037	      0.00000000	      0.00000000
     19.99678571	     -5.71877796	     -6.07202141	      0.22175453	      1.05592996	      0.92680939	      0.42178074	     14.79322708	     -5.17807863	    -10.80741314	     46.97795746	     46.97795746	      5.30390112	     -7.61572978	    -13.34247962	     22.18593801	     -7.37641351	     -5.37257810	     27.13615494	     27.13615494	     12.88370429	    -12.16203271	      3.92559770	     -9.73040406	      4.57634609	      3.56175317	     19.62167469	    -12.71561527	      0.87405514	     51.38423083	     45.82219092	      0.00000000	      0.00000000	      3.82976675	    -15.82396553	      1.56320790	     51.74668185	     45.42454342	      0.00000000	      0.00000000
     20.01071429	     -5.65695430	     -5.95539395	     -0.04977024	      1.05480725	      0.92718207	      0.42008151	     16.61895082	     -5.74344861	    -10.27153664	     50.09275070	     50.09275070	      4.11077344	     -8.62601706	    -12.93224009	     21.63347223	     -7.29627220	     -5.95522027	     26.99176428	     26.99176428	     13.22348272	    -11.72988774	      3.69328223	     -9.97939797	      4.34277402	      3.40098799	     18.26869744	    -12.74098060	      1.00018988	     50.38256393	     45.84283291	      0.00000000	      0.00000000	      5.06631521	    -16.34812517	      1.37073110	     52.36165236	     45.46764116	      0.00000000	      0.00000000
     20.02464286	     -5.64763953	     -6.06623303	     -0.36554242	      1.05368527	      0.92758069	      0.41892992	     18.56810357	     -5.87451470	     -9.60839199	     53.17754329	     53.17754329	      4.45535915	     -9.01113701	     -8.27444383	     21.13497607	     -7.64371175	     -6.97147450	     26.87109253	     26.87109253	     13.67176387	    -10.39748786	      2.97193441	    -10.03240245	      4.32994172	      3.27562299	     17.67953175	    -12.46261713	      0.74669458	     46.64224083	     45.95687644	      0.00000000	      0.00000000	      6.12337169	    -17.19962380	      2.55374023	     53.23782156	     45.48401586	      0.00000000	      0.00000000
     20.03857143	     -5.50219394	     -6.08465652	     -0.53740057	      1.05261646	      0.92823659	      0.41762260	     20.04702860	     -6.18850805	     -9.32568275	     55.43927581	     55.43927581	      3.62243487	     -9.75629292	     -8.04404860	     20.45348217	     -7.65784941	     -7.31422547	     26.61554829	     26.61554829	     14.01554091	    -10.04655114	      2.82750720	    -10.32849181	      4.25665320	      2.80146619	     16.25283891	    -12.40206319	      0.85060859	     45.86418685	     45.97019886	      0.00000000	      0.00000000	      7.26980184	    -17.82970245	      2.31741909	     53.63662215	     45.52427582	      0.00000000	      0.00000000
     20.05250000	     -5.47682280	     -6.15831364	     -0.86240478	      1.05143389	      0.92882742	      0.41687486	     21.73913048	     -6.14160237	     -8.64495475	     57.50364144	     57.50364144	      3.46233308	    -10.64315028	     -5.82547302	     19.89175949	     -8.00008164	     -8.47978613	     26.42327588	     26.42327588	     14.41154397	     -8.56546723	      2.27409667	    -10.41921676	      4.17925534	      3.09777478	     15.05105097	    -12.59473379	      0.90112371	     43.16222471	     46.04742961	      0.00000000	      0.00000000	      8.81008661	    -18.12614400	      2.90184239	     53.86269939	     45.53426324	      0.00000000	      0.00000000
     20.06642857	     -5.44604993	     -6.09294609	     -1.06514601	      1.05027690	      0.92951004	      0.41595741	     23.21244057	     -6.37220609	     -8.29553942	     58.98747315	     58.98747315	      3.09161269	    -11.22280211	     -5.34687498	     19.23541206	     -7.92800198	     -8.91447817	     25.97112766	     25.97112766	     14.64177848	     -8.19548174	      2.21337349	    -10.55202375	      3.98163736	      2.61793398	     13.67605164	    -12.51737477	      0.98402738	     42.14304873	     46.06898336	      0.00000000	      0.00000000	      9.87463032	    -18.69756065	      2.85423608	     54.06598692	     45.55964805	      0.00000000	      0.00000000
     20.08035714	     -5.35538977	     -6.18697410	     -1.26004933	      1.04917202	      0.93038830	      0.41532153	     24.53615733	     -6.33040883	     -7.96137255	     60.10237605	     60.10237605	      3.64706050	    -11.26133439	     -2.45132924	     18.52392367	     -8.08962281	     -9.49306365	     25.55124617	     25.55124617	     14.87363539	     -7.47392787	      1.89424309	    -10.65681127	      3.96227217	      2.51378988	     12.90707747	    -12.39800614	      0.84251170	     38.73219769	     46.17110350	      0.00000000	      0.00000000	     11.64185420	    -19.26911929	      4.27895924	     53.07165357	     45.53225419	      0.00000000	      0.00000000
